<?xml version="1.0" encoding="UTF-8" standalone="no"?><!DOCTYPE svg PUBLIC "-//W3C//DTD SVG 1.1//EN" "http://www.w3.org/Graphics/SVG/1.1/DTD/svg11.dtd"><svg width="100%" height="100%" viewBox="0 0 2134 2134" version="1.1" xmlns="http://www.w3.org/2000/svg" xmlns:xlink="http://www.w3.org/1999/xlink" xml:space="preserve" xmlns:serif="http://www.serif.com/" style="fill-rule:evenodd;clip-rule:evenodd;stroke-linejoin:round;stroke-miterlimit:2;"><path d="M1820.91,312.419c-415.909,-415.908 -1092.59,-415.908 -1508.5,0c-415.908,415.909 -415.908,1092.59 0,1508.5c415.909,415.909 1092.59,415.909 1508.5,-0c415.909,-415.909 415.909,-1092.59 -0,-1508.5Zm-487.114,1147.08l-267.133,-267.133l-267.133,267.133c-34.7,34.699 -91.001,34.699 -125.701,-0c-34.699,-34.699 -34.699,-91.001 0,-125.7l267.133,-267.133l-267.133,-267.133c-34.699,-34.7 -34.699,-91.001 0,-125.701c34.7,-34.699 91.001,-34.699 125.701,0l267.133,267.133l267.133,-267.133c34.699,-34.699 91.001,-34.699 125.7,0c34.699,34.7 34.699,91.001 -0,125.701l-267.133,267.133l267.133,267.133c34.699,34.699 34.699,91.001 -0,125.7c-34.699,34.699 -91.001,34.699 -125.7,-0Z" style="fill-rule:nonzero;"/></svg>